<svg fill="#ffffff" height="1px" width="1px" version="1.1" id="Capa_1" xmlns="http://www.w3.org/2000/svg" xmlns:xlink="http://www.w3.org/1999/xlink" viewBox="0 0 458.132 458.132" xml:space="preserve" stroke="#ffffff"><g id="SVGRepo_bgCarrier" stroke-width="0"></g><g id="SVGRepo_tracerCarrier" stroke-linecap="round" stroke-linejoin="round"></g><g id="SVGRepo_iconCarrier"> <g> <path d="M458.104,421.151c-0.3-3.023-2.985-5.22-6.017-4.93c-17.321,1.721-36.023,2.593-55.586,2.593 c-70.19,0-104.005-6.545-133.84-12.319c-23.064-4.464-44.849-8.681-79.16-8.681c-77.007,0-173.663,31.923-177.739,33.282 c-2.882,0.96-4.439,4.075-3.479,6.957c0.768,2.305,2.914,3.762,5.217,3.762c0.576,0,1.163-0.091,1.74-0.284 c0.981-0.327,99.023-32.718,174.261-32.718c33.256,0,53.56,3.93,77.069,8.48c30.32,5.869,64.686,12.52,135.931,12.52 c19.925,0,38.993-0.891,56.674-2.647C456.197,426.868,458.404,424.174,458.104,421.151z"></path> <path d="M252.316,97.315c22.332,0,40.5-18.168,40.5-40.5s-18.168-40.5-40.5-40.5s-40.5,18.168-40.5,40.5 S229.984,97.315,252.316,97.315z M252.316,27.315c16.266,0,29.5,13.234,29.5,29.5s-13.234,29.5-29.5,29.5s-29.5-13.234-29.5-29.5 S236.05,27.315,252.316,27.315z"></path> <path d="M122.416,376.815c0.811,0.024,6.515,0.185,15.813,0.185c15.775,0,41.888-0.461,71.953-2.827 c66.001-5.193,118.688-16.583,156.598-33.853c27.321-12.442,56.72-23.25,87.38-32.122c2.918-0.844,4.599-3.894,3.754-6.812 c-0.845-2.917-3.892-4.6-6.812-3.754c-6.204,1.795-12.342,3.69-18.439,5.64l-0.334-0.244c-0.531-0.482-13.282-11.917-37.681-22.724 c-22.328-9.889-59.172-21.123-107.878-18.481c-22.452,1.217-45.794,5.627-73.401,13.861c-12.936-16.14-25.921-36.045-38.268-60.616 c-0.728-1.449-3.339-8.427-3.727-9.635c15.099-5.833,86.501-29.989,163.062,0.979c4.252,1.722,8.73,3.398,13.314,4.982 c37.372,12.873,72.104,15.963,96.83,15.963c2.874,0,5.615-0.042,8.207-0.115c3.037-0.086,5.429-2.617,5.343-5.653 c-0.085-3.037-2.624-5.437-5.652-5.343c-20.348,0.577-50.083-0.853-83.153-9.748c18.464-4.716,46.94-11.074,68.333-11.686 c4.376-0.124,9.363-0.111,14.823,0.041c3.043,0.081,5.566-2.31,5.65-5.346c0.083-3.037-2.31-5.566-5.346-5.65 c-5.665-0.157-10.859-0.17-15.439-0.04c-31.526,0.902-77.103,13.56-87.643,16.602c-3.826-1.349-7.568-2.757-11.138-4.203 c-47.115-19.058-92.008-17.972-121.374-13.704c-29.621,4.304-49.442,12.436-52.749,13.855c-12.55-9.4-41.582-15.019-88.477-17.142 c-36.354-1.647-70.329-0.419-70.667-0.406c-3.036,0.113-5.405,2.665-5.292,5.7c0.112,3.036,2.679,5.4,5.7,5.292 c0.334-0.013,33.854-1.224,69.761,0.402c61.737,2.795,79.044,11.361,83.866,16.219c1.634,1.646,1.778,2.845,1.744,3.604 c-0.776,17.429-31.057,19.779-60.576,19.779h-0.985c-10.348-0.01-25.995-0.008-39.384,2.81c-18.112,3.812-27.533,11.917-28,24.089 c-0.241,6.289,1.885,11.813,6.32,16.421c5.175,5.377,13.421,9.309,24.51,11.687c10.021,2.148,19.019,2.315,21.538,2.315 c0.7,0,1.683-0.023,2.897-0.054c8.524-0.208,34.456-0.851,43.616,8.084c2.038,1.989,2.987,4.26,2.987,7.148 c0,2.268-0.726,4.032-2.283,5.551c-7.507,7.323-29.682,6.771-40.339,6.503c-1.913-0.048-3.573-0.088-4.894-0.088H64.172 c-15.284,0-29.038,9.083-35.038,23.14l-12.121,28.394H5.5c-3.038,0-5.5,2.462-5.5,5.5s2.462,5.5,5.5,5.5H122.416z M321.202,303.315 c2.955-1.563,6.476-2.727,10.433-2.756c3.595-0.024,7.276,0.896,10.98,2.756H321.202z M336.471,313.315 c-0.53,1.625-0.861,3.295-0.975,4.978l-5.266-1.347l-0.605-3.63H336.471z M287.365,272.807 c46.274-2.511,81.201,8.046,102.351,17.345c14.66,6.445,24.91,13.189,30.437,17.25c-20.069,6.847-39.471,14.5-57.933,22.908 c-3.688,1.68-7.498,3.272-11.391,4.799c-0.379-3.357-1.558-6.562-3.493-9.376c-2.462-3.581-2.517-8.245-0.141-11.882l0.35-0.536 h9.949c2.022,0,3.846-1.218,4.62-3.086c0.773-1.869,0.346-4.019-1.084-5.449c-9.513-9.513-19.437-14.273-29.472-14.221 c-12.252,0.093-21.17,7.413-25.396,11.769c-1.818,1.875-2.335,4.638-1.319,7.04c1.015,2.398,3.354,3.947,5.96,3.947h8.683 l1.415,8.488c0.326,1.954,1.774,3.531,3.693,4.022l13.196,3.376c0.391,0.75,0.817,1.487,1.306,2.197 c1.229,1.787,1.878,3.877,1.878,6.046v1.306c-6.128,2.133-12.434,4.109-18.884,5.923c-6.24-0.287-52.29-4.346-101.002-59.791 C245.858,277.762,267.04,273.909,287.365,272.807z M39.251,341.739c4.268-9.998,14.05-16.458,24.921-16.458h22.312 c1.247,0,2.813,0.04,4.619,0.085c18.127,0.452,38.304,0.12,48.294-9.625c3.665-3.575,5.603-8.218,5.603-13.426 c0-5.885-2.122-10.939-6.306-15.021c-11.059-10.79-33.366-11.656-51.569-11.207c-1.101,0.027-1.991,0.05-2.625,0.05 c-9.647,0-30.031-2.222-38.123-10.629c-2.345-2.438-3.379-5.098-3.253-8.372c0.626-16.337,39.701-16.357,56.388-16.32h0.988 c15.017,0,30.705-0.444,43.707-3.666c10.901-2.701,18.62-7.09,23.137-13.091c20.056,38.792,52.839,87.143,100.591,114.024 c10.95,6.164,20.851,10.164,29.145,12.769c-81.836,17.696-173.226,15.005-174.399,14.967c-0.06-0.002-0.121-0.003-0.181-0.003 H28.974L39.251,341.739z"></path> </g> </g></svg>