<svg fill="#ffffff" height="1px" width="1px" version="1.1" id="Capa_1" xmlns="http://www.w3.org/2000/svg" xmlns:xlink="http://www.w3.org/1999/xlink" viewBox="0 0 441.303 441.303" xml:space="preserve" stroke="#ffffff"><g id="SVGRepo_bgCarrier" stroke-width="0"></g><g id="SVGRepo_tracerCarrier" stroke-linecap="round" stroke-linejoin="round"></g><g id="SVGRepo_iconCarrier"> <g> <path d="M437.396,368.119c-32.669-9.899-65.92-17.525-99.549-22.854V310.65c7.886-2.144,16.222-1.596,23.785,1.623 c1.124,0.481,2.308,0.726,3.517,0.726c3.184,0,6.147-1.747,7.734-4.559c1.588-2.814,1.533-6.156-0.148-8.941l-20.701-34.283 c0.376,0.14,0.752,0.283,1.123,0.441c3.56,1.509,7.653,0.562,10.188-2.36c2.535-2.922,2.896-7.11,0.896-10.422l-16.199-26.823 c0.195,0.076,0.393,0.146,0.586,0.228c3.56,1.512,7.656,0.565,10.191-2.358s2.896-7.111,0.896-10.423v-0.001l-31.514-52.184 c-0.996-1.649-2.781-2.657-4.708-2.657s-3.712,1.008-4.708,2.657l-17.715,29.334l-23.415-38.786 c-0.996-1.649-2.782-2.657-4.709-2.657s-3.713,1.008-4.708,2.657l-21.362,35.381l-28.221-46.731 c-0.996-1.649-2.781-2.657-4.708-2.657s-3.712,1.008-4.708,2.657l-28.221,46.732l-21.363-35.383 c-0.995-1.649-2.781-2.657-4.708-2.657s-3.713,1.008-4.709,2.657l-23.414,38.786l-17.715-29.334 c-0.996-1.649-2.781-2.657-4.708-2.657s-3.712,1.008-4.708,2.657L68.18,213.498c-2,3.312-1.641,7.5,0.895,10.423 c2.535,2.923,6.631,3.871,10.192,2.359c0.194-0.082,0.391-0.152,0.587-0.228l-16.2,26.825c-1.998,3.311-1.638,7.499,0.897,10.42 c2.534,2.921,6.628,3.87,10.196,2.356c0.37-0.158,0.743-0.304,1.118-0.444l-20.705,34.289c-1.682,2.784-1.737,6.126-0.149,8.941 c1.587,2.813,4.551,4.56,7.735,4.56c1.211,0,2.395-0.245,3.503-0.72c7.577-3.224,15.914-3.772,23.799-1.628v36.864 c-29.063,5.15-57.821,12.023-86.142,20.605C1,369-0.643,372.071,0.238,374.978c0.881,2.907,3.955,4.55,6.858,3.669 c69.199-20.968,141.05-31.6,213.556-31.6s144.355,10.632,213.555,31.6c0.531,0.161,1.068,0.238,1.597,0.238 c2.36,0,4.542-1.531,5.262-3.906C441.946,372.071,440.303,369,437.396,368.119z M119.191,310.541 c2.34-0.603,4.727-0.972,7.143-1.102v32.566c-2.383,0.302-4.763,0.615-7.143,0.94V310.541z M137.333,310.509 c1.776,0.455,3.52,1.045,5.226,1.772c0.626,0.266,1.27,0.451,1.918,0.567v27.076c-2.383,0.243-4.764,0.499-7.144,0.765V310.509z M139.729,223.921c2.03-2.34,2.638-5.487,1.785-8.35c2.481,0.47,4.877,1.398,7.073,2.787l3.43,2.16 c0.896,0.564,1.914,0.846,2.932,0.846s2.035-0.282,2.931-0.846l3.438-2.164c3.252-2.054,7.001-3.14,10.842-3.14 c2.733,0,5.398,0.543,7.916,1.611c1.036,0.441,2.117,0.668,3.193,0.704l-12.467,20.644c-0.993,1.645-1.406,3.5-1.284,5.317 c-5.139,0.701-10.122,2.48-14.566,5.25c-4.724-2.944-10.058-4.779-15.544-5.376l-10.455-17.312 c0.196,0.076,0.393,0.146,0.587,0.228C133.097,227.792,137.195,226.844,139.729,223.921z M288.167,223.922 c2.534,2.923,6.631,3.869,10.191,2.358c0.194-0.082,0.391-0.152,0.587-0.228l-10.456,17.312 c-5.483,0.597-10.816,2.432-15.542,5.376c-4.44-2.767-9.419-4.546-14.555-5.248c0.124-1.821-0.298-3.666-1.296-5.32l-12.466-20.641 c1.073-0.036,2.151-0.262,3.183-0.702c6.072-2.576,13.195-1.992,18.771,1.53l3.43,2.16c0.896,0.564,1.914,0.846,2.932,0.846 s2.035-0.282,2.932-0.846l3.438-2.166c2.19-1.385,4.584-2.312,7.064-2.781C285.527,218.435,286.136,221.582,288.167,223.922z M275.91,296.751h-9.465c1.417-2.764,1.372-6.097-0.29-8.85l-19.787-32.77c2.738-0.772,5.607-1.103,8.447-0.954 c4.378,0.232,8.676,1.605,12.424,3.967l2.77,1.75c0.896,0.567,1.917,0.85,2.938,0.85c1.02,0,2.04-0.283,2.938-0.85l2.767-1.748 c0.921-0.581,1.876-1.101,2.856-1.56c-0.184,1.779,0.167,3.593,1.09,5.228c1.587,2.812,4.552,4.559,7.735,4.559 c1.211,0,2.395-0.245,3.503-0.72c0.367-0.156,0.741-0.298,1.116-0.437L275.91,296.751z M239.448,286.885 c-5.95,0-11.804,1.042-17.404,3.1c-2.802,1.034-5.517,2.323-8.095,3.845c-2.577-1.521-5.295-2.811-8.101-3.846 c-10.356-3.814-21.512-4.121-31.939-0.954l23.898-39.578c3.625,0.619,7.123,1.946,10.258,3.925l2.949,1.86 c0.896,0.565,1.915,0.848,2.934,0.848s2.037-0.282,2.934-0.848l2.953-1.862c3.133-1.978,6.63-3.305,10.255-3.924l23.896,39.576 C249.292,287.604,244.422,286.885,239.448,286.885z M226.255,208.38l18.741,31.032c-3.999-1.082-8.175-1.532-12.311-1.309 c-6.62,0.353-13.094,2.418-18.721,5.97l-0.017,0.01l-0.013-0.009c-5.63-3.554-12.104-5.619-18.742-5.972 c-4.173-0.208-8.316,0.219-12.284,1.299l18.733-31.019c1.992,0.568,3.919,1.413,5.713,2.546l3.656,2.309 c0.897,0.566,1.917,0.849,2.937,0.849s2.039-0.283,2.936-0.849l3.658-2.309C222.336,209.794,224.262,208.949,226.255,208.38z M137.563,266.374c3.185,0,6.148-1.747,7.735-4.56c0.923-1.636,1.273-3.449,1.089-5.228c0.979,0.458,1.933,0.978,2.853,1.558 l2.77,1.75c0.896,0.567,1.917,0.85,2.938,0.85c1.02,0,2.04-0.283,2.938-0.85l2.767-1.748c3.751-2.365,8.049-3.738,12.428-3.97 c2.844-0.151,5.72,0.182,8.449,0.952l-19.789,32.772c-1.662,2.753-1.759,6.032-0.305,8.85h-9.45l-19.041-31.535 c0.371,0.138,0.74,0.278,1.104,0.432C135.17,266.13,136.354,266.374,137.563,266.374z M155.477,307.751h7.143V338.3 c-2.382,0.185-4.763,0.381-7.143,0.589V307.751z M173.62,300.804c2.327-0.952,4.717-1.672,7.143-2.16v38.468 c-2.382,0.127-4.763,0.264-7.143,0.413V300.804z M191.762,298.02c2.401,0.205,4.791,0.631,7.144,1.282v37.063 c-2.382,0.069-4.763,0.15-7.144,0.242V298.02z M209.906,304.262l1.09,0.693c0.9,0.573,1.927,0.859,2.952,0.859 s2.051-0.286,2.951-0.859l0.149-0.095v31.203c-2.382,0.011-4.762,0.034-7.143,0.068V304.262z M228.048,299.579 c2.64-0.799,5.343-1.321,8.084-1.552v38.185c-2.694-0.055-5.388-0.1-8.084-0.127V299.579z M247.132,298.641 c2.437,0.486,4.822,1.212,7.144,2.163v35.999c-2.38-0.107-4.761-0.201-7.144-0.285V298.641z M265.276,307.751h7.143v30.089 c-2.38-0.164-4.76-0.318-7.143-0.459V307.751z M283.418,312.847c0.65-0.116,1.296-0.302,1.925-0.569 c1.702-0.725,3.444-1.315,5.218-1.769v28.804c-2.379-0.223-4.76-0.435-7.143-0.635V312.847z M301.561,309.439 c2.417,0.13,4.804,0.499,7.143,1.101v30.695c-2.379-0.281-4.76-0.551-7.143-0.809V309.439z M319.704,315.423l0.84,0.534 c0.9,0.572,1.926,0.858,2.95,0.858c1.025,0,2.051-0.286,2.951-0.859l0.402-0.256v27.911c-2.379-0.341-4.761-0.67-7.144-0.988 V315.423z M330.964,301.308c-2.583,0.953-5.087,2.136-7.471,3.529c-2.38-1.391-4.888-2.575-7.479-3.531 c-5.282-1.941-10.81-2.925-16.429-2.925c-4.399,0-8.712,0.595-12.88,1.774l21.83-36.152c3.271,0.589,6.424,1.808,9.259,3.598 l2.767,1.744c0.896,0.565,1.914,0.847,2.933,0.847s2.037-0.282,2.934-0.848l2.769-1.746c2.835-1.79,5.99-3.008,9.255-3.596 l21.83,36.153C350.683,297.433,340.47,297.807,330.964,301.308z M341.042,252.645c-6.198,0.33-12.263,2.247-17.548,5.544 c-5.287-3.298-11.35-5.214-17.547-5.544c-3.633-0.194-7.297,0.157-10.833,1.029l16.998-28.146c1.747,0.523,3.438,1.276,5.016,2.273 l3.429,2.165c0.897,0.566,1.917,0.849,2.937,0.849s2.04-0.283,2.937-0.85l3.428-2.164c1.579-0.997,3.27-1.75,5.017-2.273 l16.99,28.133C348.362,252.794,344.806,252.457,341.042,252.645z M323.494,174.797l23.912,39.596 c-7.967-1.748-16.396-0.329-23.421,4.105l-0.491,0.31l-0.492-0.311c-5.073-3.203-10.878-4.832-16.713-4.832 c-2.244,0-4.494,0.241-6.708,0.727L323.494,174.797z M272.947,165.346l21.698,35.943l-1.839,3.045 c-6.782-0.589-13.534,1.031-19.361,4.716l-0.498,0.314l-0.492-0.31c-5.014-3.166-10.794-4.84-16.718-4.84 c-0.953,0-1.899,0.053-2.84,0.139c0.811-1.965,0.886-4.154,0.24-6.197L272.947,165.346z M213.948,153.995l26.268,43.496 c-8.651-2.137-17.89-0.699-25.546,4.135l-0.722,0.455l-0.72-0.455c-5.353-3.378-11.476-5.097-17.631-5.097 c-2.652,0-5.312,0.32-7.916,0.963L213.948,153.995z M154.948,165.346l19.811,32.812c-0.645,2.042-0.57,4.231,0.24,6.195 c-0.941-0.085-1.888-0.139-2.842-0.139c-5.923,0-11.703,1.674-16.71,4.836l-0.5,0.315l-0.489-0.308 c-5.833-3.69-12.588-5.311-19.369-4.722l-1.839-3.045L154.948,165.346z M104.402,174.797l23.912,39.596 c-7.971-1.748-16.396-0.329-23.42,4.105l-0.492,0.311l-0.492-0.311c-5.073-3.203-10.878-4.832-16.713-4.832 c-2.244,0-4.493,0.241-6.707,0.727L104.402,174.797z M93.021,225.527c1.747,0.523,3.437,1.276,5.016,2.273l3.429,2.165 c0.897,0.566,1.917,0.849,2.937,0.849s2.039-0.283,2.937-0.849l3.429-2.165c1.579-0.997,3.269-1.75,5.016-2.272l16.997,28.145 c-3.534-0.87-7.196-1.223-10.83-1.027c-6.199,0.33-12.264,2.247-17.549,5.544c-5.287-3.298-11.351-5.214-17.567-5.545 c-3.662-0.183-7.302,0.15-10.804,1.016L93.021,225.527z M67.614,300.156l21.83-36.154c3.271,0.589,6.424,1.808,9.259,3.597 l2.766,1.744c0.896,0.565,1.915,0.848,2.934,0.848s2.037-0.282,2.934-0.848l2.769-1.746c2.833-1.788,5.985-3.006,9.256-3.595 l21.829,36.152c-4.17-1.179-8.481-1.774-12.88-1.774c-5.618,0-11.146,0.984-16.437,2.928c-2.581,0.952-5.085,2.135-7.471,3.529 c-2.382-1.392-4.889-2.576-7.476-3.53C87.429,297.808,77.219,297.433,67.614,300.156z M101.048,315.7l0.402,0.256 c0.9,0.573,1.926,0.859,2.951,0.859s2.051-0.286,2.951-0.859l0.838-0.533v29.112c-2.383,0.362-4.764,0.736-7.143,1.121V315.7z"></path> <path d="M55.948,151.418c24.537,0,44.5-19.963,44.5-44.5c0-1.729-0.111-3.534-0.331-5.364c-0.298-2.474-2.222-4.439-4.688-4.789 c-2.469-0.35-4.862,1.002-5.836,3.297c-3.013,7.101-9.942,11.689-17.654,11.689c-10.568,0-19.166-8.598-19.166-19.167 c0-8.405,5.619-15.956,13.666-18.362c2.388-0.714,3.997-2.945,3.921-5.437c-0.075-2.491-1.817-4.621-4.244-5.188 c-3.349-0.783-6.77-1.18-10.167-1.18c-24.537,0-44.5,19.963-44.5,44.5S31.411,151.418,55.948,151.418z M47.935,74.386 c-3.891,5.135-6.163,11.494-6.163,18.198c0,16.634,13.532,30.167,30.166,30.167c5.564,0,10.87-1.518,15.441-4.239 c-4.728,12.776-17.033,21.906-31.432,21.906c-18.472,0-33.5-15.028-33.5-33.5C22.448,91.207,33.32,77.987,47.935,74.386z"></path> <circle cx="231.948" cy="107.584" r="6.333"></circle> <circle cx="310.615" cy="82.918" r="6.333"></circle> <circle cx="346.281" cy="143.251" r="6.333"></circle> <circle cx="147.948" cy="72.918" r="6.333"></circle> <circle cx="42.615" cy="195.584" r="6.333"></circle> </g> </g></svg>