<svg fill="#ffffff" height="1px" width="1px" version="1.1" id="Capa_1" xmlns="http://www.w3.org/2000/svg" xmlns:xlink="http://www.w3.org/1999/xlink" viewBox="0 0 441.302 441.302" xml:space="preserve" stroke="#ffffff"><g id="SVGRepo_bgCarrier" stroke-width="0"></g><g id="SVGRepo_tracerCarrier" stroke-linecap="round" stroke-linejoin="round"></g><g id="SVGRepo_iconCarrier"> <g> <path d="M23.936,122.326c0.184,2.896,2.587,5.151,5.489,5.151h93.562c2.55,0,4.765-1.752,5.352-4.233 c0.481-2.031,0.725-4.066,0.725-6.048c0-14.457-11.762-26.219-26.219-26.219c-3.792,0-7.467,0.805-10.852,2.358 c-5.733-6.802-14.252-10.858-23.309-10.858c-11.38,0-21.868,6.495-27.054,16.46c-10.195,2.186-17.759,11.252-17.759,21.977 c0,0.408,0.023,0.809,0.051,1.21L23.936,122.326z M45.701,109.455c2.155-0.124,4.039-1.497,4.816-3.511 c2.877-7.457,10.177-12.467,18.167-12.467c6.993,0,13.486,3.788,16.944,9.886c0.78,1.376,2.116,2.35,3.665,2.672 c1.551,0.322,3.162-0.039,4.426-0.99c2.667-2.007,5.822-3.067,9.125-3.067c8.151,0,14.826,6.44,15.202,14.5H35.764 C37.416,112.55,41.197,109.714,45.701,109.455z"></path> <path d="M437.396,248.745c-55.286-16.752-112.238-26.999-169.869-30.604c-3.044-23.161-22.897-41.103-46.876-41.103 c-23.978,0-43.832,17.942-46.875,41.103c-57.631,3.605-114.583,13.852-169.869,30.604c-2.907,0.881-4.55,3.952-3.669,6.858 c0.881,2.907,3.956,4.551,6.858,3.669c69.199-20.968,141.049-31.6,213.555-31.6c72.506,0,144.356,10.632,213.555,31.6 c0.532,0.161,1.068,0.238,1.597,0.238c2.36,0,4.542-1.531,5.262-3.907C441.945,252.697,440.303,249.626,437.396,248.745z M185.007,217.522c3.197-16.768,17.959-29.485,35.644-29.485c17.685,0,32.447,12.717,35.644,29.485 c-11.858-0.563-23.742-0.85-35.644-0.85C208.749,216.672,196.865,216.959,185.007,217.522z"></path> <path d="M283.739,169.784h64.641c3.038,0,5.5-2.462,5.5-5.5c0-12.009-9.77-21.778-21.778-21.778c-3.162,0-6.286,0.701-9.137,2.02 c-4.881-4.48-11.218-6.976-17.992-6.976c-14.741,0-26.734,11.993-26.734,26.735C278.239,167.322,280.702,169.784,283.739,169.784z M304.974,148.549c4.981,0,9.565,2.304,12.579,6.321c0.893,1.19,2.23,1.968,3.707,2.156c1.475,0.187,2.965-0.231,4.127-1.16 c1.932-1.544,4.254-2.36,6.716-2.36c3.935,0,7.385,2.12,9.266,5.278h-51.138C292.466,152.812,298.231,148.549,304.974,148.549z"></path> <path d="M255.61,236.83H236.45c-3.038,0-5.5,2.462-5.5,5.5s2.462,5.5,5.5,5.5h19.161c3.038,0,5.5-2.462,5.5-5.5 S258.648,236.83,255.61,236.83z"></path> <path d="M122.196,245.83H113.1c-3.038,0-5.5,2.462-5.5,5.5s2.462,5.5,5.5,5.5h9.096c3.038,0,5.5-2.462,5.5-5.5 S125.234,245.83,122.196,245.83z"></path> <path d="M218.939,236.83h-33.248c-3.038,0-5.5,2.462-5.5,5.5s2.462,5.5,5.5,5.5h33.248c3.038,0,5.5-2.462,5.5-5.5 S221.977,236.83,218.939,236.83z"></path> <path d="M261.718,259.03h-8.789c-3.038,0-5.5,2.462-5.5,5.5s2.462,5.5,5.5,5.5h8.789c3.038,0,5.5-2.462,5.5-5.5 S264.756,259.03,261.718,259.03z"></path> <path d="M317.439,259.03h-11.511c-3.038,0-5.5,2.462-5.5,5.5s2.462,5.5,5.5,5.5h11.511c3.038,0,5.5-2.462,5.5-5.5 S320.477,259.03,317.439,259.03z"></path> <path d="M29.187,268.03H17.676c-3.038,0-5.5,2.462-5.5,5.5s2.462,5.5,5.5,5.5h11.511c3.038,0,5.5-2.462,5.5-5.5 S32.225,268.03,29.187,268.03z"></path> <path d="M198.35,264.53c0,3.038,2.462,5.5,5.5,5.5h32.09c3.038,0,5.5-2.462,5.5-5.5s-2.462-5.5-5.5-5.5h-32.09 C200.812,259.03,198.35,261.492,198.35,264.53z"></path> <path d="M174.084,264.53c0,3.038,2.462,5.5,5.5,5.5h8.856c3.038,0,5.5-2.462,5.5-5.5s-2.462-5.5-5.5-5.5h-8.856 C176.546,259.03,174.084,261.492,174.084,264.53z"></path> <path d="M266.299,281.228h-27.94c-3.038,0-5.5,2.462-5.5,5.5s2.462,5.5,5.5,5.5h27.94c3.038,0,5.5-2.462,5.5-5.5 S269.337,281.228,266.299,281.228z"></path> <path d="M403.439,281.228h-8.595c-3.038,0-5.5,2.462-5.5,5.5s2.462,5.5,5.5,5.5h8.595c3.038,0,5.5-2.462,5.5-5.5 S406.477,281.228,403.439,281.228z"></path> <path d="M102.439,289.372h-8.595c-3.038,0-5.5,2.462-5.5,5.5s2.462,5.5,5.5,5.5h8.595c3.038,0,5.5-2.462,5.5-5.5 S105.477,289.372,102.439,289.372z"></path> <path d="M169.503,286.728c0,3.038,2.462,5.5,5.5,5.5h46.937c3.038,0,5.5-2.462,5.5-5.5s-2.462-5.5-5.5-5.5h-46.937 C171.965,281.228,169.503,283.691,169.503,286.728z"></path> <path d="M273.171,303.427h-60.87c-3.038,0-5.5,2.462-5.5,5.5s2.462,5.5,5.5,5.5h60.87c3.038,0,5.5-2.462,5.5-5.5 S276.208,303.427,273.171,303.427z"></path> <path d="M162.631,308.927c0,3.038,2.462,5.5,5.5,5.5h26.808c3.038,0,5.5-2.462,5.5-5.5s-2.462-5.5-5.5-5.5h-26.808 C165.094,303.427,162.631,305.889,162.631,308.927z"></path> <path d="M356.115,303.427h-15.252c-3.038,0-5.5,2.462-5.5,5.5s2.462,5.5,5.5,5.5h15.252c3.038,0,5.5-2.462,5.5-5.5 S359.152,303.427,356.115,303.427z"></path> <path d="M53.255,311.571h-9.533c-3.038,0-5.5,2.462-5.5,5.5s2.462,5.5,5.5,5.5h9.533c3.038,0,5.5-2.462,5.5-5.5 S56.292,311.571,53.255,311.571z"></path> <path d="M256.681,331.126c0,3.038,2.462,5.5,5.5,5.5h18.711c3.038,0,5.5-2.462,5.5-5.5s-2.462-5.5-5.5-5.5h-18.711 C259.143,325.626,256.681,328.089,256.681,331.126z"></path> <path d="M154.91,331.126c0,3.038,2.462,5.5,5.5,5.5h78.359c3.038,0,5.5-2.462,5.5-5.5s-2.462-5.5-5.5-5.5H160.41 C157.373,325.626,154.91,328.089,154.91,331.126z"></path> <path d="M288.44,347.825h-75.573c-3.038,0-5.5,2.462-5.5,5.5s2.462,5.5,5.5,5.5h75.573c3.038,0,5.5-2.462,5.5-5.5 S291.478,347.825,288.44,347.825z"></path> <path d="M180.358,347.825h-27.496c-3.038,0-5.5,2.462-5.5,5.5s2.462,5.5,5.5,5.5h27.496c3.038,0,5.5-2.462,5.5-5.5 S183.395,347.825,180.358,347.825z"></path> <path d="M168.181,154.002c7.168,0,13,5.832,13,13c0,2.761,2.239,5,5,5s5-2.239,5-5c0-7.168,5.832-13,13-13c2.761,0,5-2.239,5-5 s-2.239-5-5-5c-7.281,0-13.783,3.401-18,8.697c-4.217-5.296-10.719-8.697-18-8.697c-2.761,0-5,2.239-5,5 S165.42,154.002,168.181,154.002z"></path> </g> </g></svg>