<svg fill="#ffffff" height="1px" width="1px" version="1.1" id="Capa_1" xmlns="http://www.w3.org/2000/svg" xmlns:xlink="http://www.w3.org/1999/xlink" viewBox="0 0 441.303 441.303" xml:space="preserve" stroke="#ffffff"><g id="SVGRepo_bgCarrier" stroke-width="0"></g><g id="SVGRepo_tracerCarrier" stroke-linecap="round" stroke-linejoin="round"></g><g id="SVGRepo_iconCarrier"> <g> <path d="M40.576,91.548c0.183,2.897,2.586,5.154,5.489,5.154h98.494c2.55,0,4.766-1.752,5.353-4.234 c0.501-2.118,0.755-4.237,0.755-6.299c0-15.06-12.252-27.311-27.312-27.311c-4.024,0-7.922,0.871-11.503,2.549 c-5.981-7.199-14.935-11.497-24.459-11.497c-11.918,0-22.896,6.829-28.285,17.293c-10.669,2.222-18.6,11.681-18.6,22.88 c0,0.42,0.024,0.833,0.053,1.245L40.576,91.548z M63.183,77.73c2.155-0.124,4.039-1.497,4.815-3.511 c3.072-7.961,10.866-13.31,19.395-13.31c7.467,0,14.398,4.044,18.09,10.554c0.78,1.376,2.116,2.35,3.665,2.672 c1.549,0.322,3.161-0.038,4.427-0.99c2.857-2.15,6.239-3.287,9.78-3.287c8.838,0,16.058,7.065,16.305,15.844H52.31 C53.998,81.262,58.175,78.018,63.183,77.73z"></path> <path d="M436.302,291.035c-66.468-6.083-132.702,0.247-196.885,18.796c-9.422-2.747-18.938-5.252-28.551-7.494 c-68.118-15.887-137.513-18.203-206.259-6.88c-2.997,0.494-5.027,3.323-4.533,6.32c0.493,2.998,3.33,5.029,6.32,4.533 c67.313-11.085,135.267-8.818,201.974,6.739c65.712,15.326,126.986,42.763,182.122,81.549c0.962,0.677,2.065,1.002,3.159,1.002 c1.729,0,3.433-0.814,4.503-2.336c1.748-2.484,1.151-5.915-1.334-7.663c-42.622-29.984-88.84-53.319-137.895-69.68 c57.698-14.682,116.94-19.37,176.376-13.933c3.013,0.275,5.701-1.951,5.979-4.976C441.555,293.988,439.328,291.312,436.302,291.035 z"></path> <path d="M5.5,240.317c0.528,0,1.065-0.077,1.598-0.238c50.171-15.209,102.138-25.025,154.5-29.214 c0.291,0.266,0.586,0.527,0.9,0.769c2.924,2.245,6.653,3.244,10.292,2.772l0.299,0.548c3.497,6.419,11.44,9.062,18.088,6.016 l0.331-0.152l0.393,0.469c4.607,5.516,12.575,6.648,18.533,2.626l0.451-0.304l0.451,0.404c1.16,1.037,2.452,1.833,3.813,2.417 v14.176c0,3.038,2.463,5.5,5.5,5.5s5.5-2.462,5.5-5.5V226.43c1.361-0.584,2.654-1.38,3.813-2.417l0.454-0.406l0.45,0.304 c5.96,4.02,13.928,2.891,18.535-2.626l0.391-0.468l0.327,0.15c6.645,3.047,14.591,0.405,18.091-6.016l0.296-0.543 c3.646,0.466,7.368-0.529,10.291-2.771c0.316-0.242,0.612-0.505,0.904-0.771c52.366,4.19,104.335,14.006,154.505,29.215 c0.532,0.161,1.069,0.238,1.598,0.238c2.359,0,4.542-1.531,5.262-3.906c0.881-2.907-0.761-5.978-3.668-6.859 c-49.521-15.011-100.766-24.845-152.43-29.287c2.089-2.391,3.338-5.45,3.45-8.701c0.133-3.826-1.311-7.503-3.931-10.206 l0.031-2.111c0.113-7.535-5.692-13.754-13.217-14.159l-1.177-0.063l-0.587-1.638c-2.396-6.693-9.419-10.516-16.346-8.89 l-1.593,0.375l-0.959-1.406c-3.972-5.821-11.688-7.775-17.948-4.541l-1.513,0.781l-1.257-1.115 c-5.285-4.693-13.259-4.694-18.546-0.001l-1.259,1.117l-1.515-0.781c-6.258-3.231-13.978-1.28-17.948,4.543l-0.958,1.404 l-1.589-0.373c-6.923-1.631-13.95,2.196-16.347,8.889l-0.586,1.635l-1.174,0.063c-7.525,0.404-13.332,6.624-13.219,14.157 l0.031,2.112c-2.622,2.704-4.065,6.382-3.933,10.209c0.112,3.251,1.361,6.31,3.45,8.701 c-51.66,4.441-102.903,14.275-152.425,29.286c-2.907,0.881-4.549,3.952-3.668,6.859C0.958,238.786,3.139,240.317,5.5,240.317z M165.071,188.696l0.565-0.421c1.416-1.055,2.239-2.726,2.213-4.491l-0.069-4.704c-0.023-1.602,1.211-2.923,2.811-3.009 l4.824-0.259c2.212-0.119,4.136-1.553,4.883-3.638l1.818-5.078c0.509-1.422,1.996-2.234,3.476-1.89l5.265,1.237 c2.218,0.523,4.521-0.376,5.802-2.256l3.084-4.522c0.843-1.237,2.484-1.654,3.815-0.966l4.866,2.511 c2.021,1.042,4.473,0.735,6.173-0.774l4.08-3.621c1.125-0.996,2.818-0.998,3.943,0l4.079,3.62c1.701,1.509,4.155,1.816,6.173,0.773 l4.865-2.511c1.328-0.686,2.97-0.273,3.814,0.965l3.086,4.524c1.282,1.878,3.581,2.775,5.802,2.255l5.268-1.237 c1.469-0.345,2.965,0.466,3.475,1.891l1.82,5.08c0.747,2.084,2.671,3.518,4.882,3.637l4.825,0.26c1.6,0.086,2.834,1.408,2.811,3.01 l-0.07,4.703c-0.026,1.767,0.798,3.439,2.215,4.494l0.564,0.42c1.087,0.809,1.216,1.904,1.195,2.485 c-0.02,0.576-0.221,1.646-1.335,2.377c-1.428,0.903-2.371,2.42-2.535,4.122l-0.304,3.154c-0.107,1.118-0.766,1.777-1.148,2.071 c-0.383,0.294-1.189,0.757-2.299,0.573l-3.35-0.561c-2.305-0.387-4.616,0.734-5.738,2.793l-2.165,3.974 c-0.744,1.365-2.438,1.925-3.846,1.28l-4.146-1.902c-2.256-1.035-4.923-0.431-6.515,1.474l-3.084,3.694 c-0.98,1.172-2.676,1.413-3.94,0.559l-4-2.698c-2.088-1.408-4.864-1.219-6.742,0.459l-3.646,3.26c-1.129,1.009-2.831,1.01-3.96,0 l-3.643-3.259c-1.037-0.928-2.349-1.401-3.668-1.401c-1.068,0-2.141,0.31-3.074,0.94l-4.003,2.699 c-1.266,0.854-2.961,0.614-3.939-0.559l-3.085-3.694c-1.591-1.904-4.259-2.508-6.514-1.475l-4.151,1.903 c-1.413,0.649-3.103,0.085-3.845-1.279l-2.167-3.978c-1.122-2.06-3.433-3.179-5.737-2.793l-3.352,0.561 c-1.107,0.186-1.915-0.279-2.298-0.573c-0.383-0.293-1.041-0.953-1.148-2.072l-0.304-3.154c-0.162-1.679-1.085-3.19-2.504-4.102 c-1.141-0.731-1.345-1.815-1.364-2.396C163.853,190.602,163.982,189.506,165.071,188.696z"></path> <path d="M354.042,114.702c19.023,0,34.5-15.477,34.5-34.5s-15.477-34.5-34.5-34.5s-34.5,15.477-34.5,34.5 S335.018,114.702,354.042,114.702z M354.042,56.702c12.958,0,23.5,10.542,23.5,23.5s-10.542,23.5-23.5,23.5s-23.5-10.542-23.5-23.5 S341.084,56.702,354.042,56.702z"></path> </g> </g></svg>